<svg width="24" height="24" viewBox="0 0 24 24" fill="none" xmlns="http://www.w3.org/2000/svg">
<path d="M22.1721 1.83051C22.0187 1.67718 21.8243 1.57144 21.6122 1.52603C21.4002 1.48063 21.1795 1.49748 20.9768 1.57458L2.22539 8.67192H2.22164C2.00543 8.75508 1.82017 8.90295 1.69114 9.09534C1.56212 9.28772 1.49564 9.51525 1.50076 9.74684C1.50589 9.97843 1.58239 10.2028 1.7198 10.3893C1.85721 10.5758 2.04884 10.7153 2.26851 10.7888L2.28773 10.7949L8.72367 13.5432C8.8492 13.5813 8.98253 13.5858 9.11035 13.5563C9.23817 13.5267 9.35601 13.4642 9.45211 13.3749L19.7815 3.75005C19.8123 3.71927 19.8488 3.69485 19.889 3.67819C19.9292 3.66154 19.9723 3.65296 20.0159 3.65296C20.0594 3.65296 20.1025 3.66154 20.1427 3.67819C20.1829 3.69485 20.2195 3.71927 20.2502 3.75005C20.281 3.78082 20.3054 3.81736 20.3221 3.85758C20.3387 3.89779 20.3473 3.94089 20.3473 3.98442C20.3473 4.02795 20.3387 4.07105 20.3221 4.11126C20.3054 4.15148 20.281 4.18802 20.2502 4.2188L10.6249 14.5435C10.5356 14.6396 10.4731 14.7574 10.4435 14.8852C10.414 15.0131 10.4185 15.1464 10.4566 15.2719L13.2059 21.7116C13.2087 21.721 13.2115 21.7294 13.2148 21.7383C13.3648 22.1729 13.7444 22.4794 14.2034 22.5H14.2502C14.4819 22.5014 14.7086 22.433 14.9009 22.3037C15.0932 22.1745 15.2421 21.9904 15.3284 21.7754L22.4248 3.02911C22.503 2.82627 22.5207 2.60512 22.4759 2.39241C22.431 2.1797 22.3255 1.98453 22.1721 1.83051Z" fill="#0A0A0A"/>
</svg>
