<svg width="24" height="24" viewBox="0 0 24 24" fill="none" xmlns="http://www.w3.org/2000/svg">
<path d="M15.5923 3.02719C14.6801 2.04234 13.406 1.5 11.9998 1.5C10.586 1.5 9.30775 2.03906 8.39978 3.01781C7.48197 4.00734 7.03478 5.35219 7.13978 6.80437C7.34791 9.66937 9.52806 12 11.9998 12C14.4715 12 16.6479 9.66984 16.8593 6.80531C16.9657 5.36625 16.5157 4.02422 15.5923 3.02719ZM20.2498 22.5H3.74978C3.53381 22.5028 3.31993 22.4574 3.1237 22.3672C2.92747 22.2769 2.75383 22.1441 2.6154 21.9783C2.31072 21.6141 2.1879 21.1167 2.27884 20.6137C2.67447 18.4191 3.90916 16.5755 5.84978 15.2812C7.57384 14.1323 9.75775 13.5 11.9998 13.5C14.2418 13.5 16.4257 14.1328 18.1498 15.2812C20.0904 16.575 21.3251 18.4186 21.7207 20.6133C21.8117 21.1162 21.6888 21.6136 21.3842 21.9778C21.2458 22.1437 21.0722 22.2766 20.8759 22.367C20.6797 22.4573 20.4658 22.5028 20.2498 22.5Z" fill="#0A0A0A"/>
</svg>
